<svg width="26" height="28" viewBox="0 0 26 28" fill="none" xmlns="http://www.w3.org/2000/svg">
<path d="M18.2 18.789C19.0042 18.789 19.656 18.1371 19.656 17.333C19.656 16.5288 19.0042 15.877 18.2 15.877C17.3959 15.877 16.744 16.5288 16.744 17.333C16.744 18.1371 17.3959 18.789 18.2 18.789Z" fill="#3AAFA9"/>
<path fill-rule="evenodd" clip-rule="evenodd" d="M18.2001 19.9331C17.2511 19.9331 15.3531 20.4011 15.2881 21.3371C15.9381 22.2601 17.0041 22.8581 18.2001 22.8581C19.3961 22.8581 20.4621 22.2601 21.1121 21.3371C21.0471 20.4011 19.1491 19.9331 18.2001 19.9331Z" fill="#3AAFA9"/>
<path fill-rule="evenodd" clip-rule="evenodd" d="M19.5 11.6003V4.251L9.75 0L0 4.251V11.7173C0 17.6193 4.16 23.1443 9.75 24.4833C10.465 24.3143 11.154 24.0673 11.83 23.7683C12.5465 24.7929 13.4997 25.6293 14.6088 26.2064C15.7178 26.7836 16.9498 27.0844 18.2 27.0833C22.503 27.0833 26 23.5863 26 19.2833C26 15.4223 23.192 12.2243 19.5 11.6003ZM10.4 19.2833C10.4 20.0113 10.504 20.7263 10.699 21.3893C10.387 21.5323 10.075 21.6753 9.75 21.7793C5.629 20.4793 2.6 16.2673 2.6 11.7173V5.954L9.75 2.834L16.9 5.954V11.6003C13.208 12.2243 10.4 15.4223 10.4 19.2833ZM18.2 24.4833C15.327 24.4833 13 22.1563 13 19.2833C13 16.4103 15.327 14.0833 18.2 14.0833C21.073 14.0833 23.4 16.4103 23.4 19.2833C23.4 22.1563 21.073 24.4833 18.2 24.4833Z" fill="#3AAFA9"/>
</svg>
