<svg width="357" height="285" viewBox="0 0 357 285" fill="none" xmlns="http://www.w3.org/2000/svg">
<g clip-path="url(#clip0_105_269)">
<path d="M108.148 226.239C103.173 222.664 98.112 219.133 93.2252 215.427C92.2652 214.685 91.7853 213.029 91.6107 211.764C90.6072 205.094 89.7345 198.423 88.9928 191.709C88.8182 189.922 88.1201 188.919 86.5493 188.265C81.1389 185.954 75.7284 183.6 70.2743 181.376C68.4854 180.635 67.7 179.676 67.9181 177.627C68.6163 170.52 69.8816 163.545 72.2378 156.787C72.8923 154.956 73.8086 154.215 75.8593 154.258C81.8806 154.433 87.9456 154.302 93.9669 154.389C95.5813 154.432 96.4104 153.822 97.1521 152.427C100.163 146.977 103.261 141.527 106.446 136.165C107.1 135.075 107.188 134.334 106.533 133.244C103.261 127.75 100.076 122.213 96.803 116.72C96.1049 115.543 96.0177 114.627 97.0648 113.668C102.606 108.698 108.191 103.684 113.733 98.7137C114.867 97.711 115.827 97.7546 117.136 98.7573C121.892 102.507 126.779 106.038 131.535 109.701C132.756 110.616 133.673 110.616 135.069 109.919C140.829 107.128 146.632 104.469 152.479 101.94C154.006 101.286 155.009 100.414 155.14 98.8445C155.402 95.8362 155.489 92.7844 155.62 89.7325C155.707 87.291 155.707 84.8058 155.882 82.3207C156.013 80.0972 157.278 78.7021 159.503 78.3097C162.514 77.7865 165.525 77.2197 168.535 76.9145C172.506 76.5222 176.52 76.4786 180.491 76.1734C182.28 76.0426 183.196 76.6529 183.72 78.4841C185.29 84.0647 187.079 89.6017 188.781 95.1823C189.13 96.3594 189.697 96.8826 191.006 97.1006C197.769 98.365 204.532 99.7601 211.252 101.242C212.735 101.591 213.608 101.417 214.612 100.283C218.189 96.0542 221.942 92.0432 225.476 87.7705C226.872 86.0702 228.138 85.8086 229.927 86.8114C235.075 89.7761 240.268 92.6536 245.46 95.6183C246.769 96.3594 248.034 97.2314 249.518 98.1906C249.3 98.8881 249.125 99.6293 248.863 100.37C246.987 105.733 245.198 111.096 243.235 116.415C242.755 117.766 242.842 118.551 244.02 119.597C263.655 136.688 274.127 158.313 276.177 184.167C278.01 207.317 271.247 227.896 257.808 246.512C256.892 247.82 255.976 249.128 255.408 249.913C252.485 248.038 249.649 246.294 246.944 244.332C246.464 243.984 246.158 242.632 246.42 242.022C246.987 240.801 247.991 239.755 248.776 238.665C284.642 188.657 256.194 122.039 199.253 110.398C152.828 100.894 108.889 131.805 101.952 178.455C99.6392 194.02 101.559 209.018 107.886 223.405C108.191 224.146 108.497 224.844 108.802 225.585C108.54 225.803 108.322 226.021 108.148 226.239Z" fill="#02677D"/>
<path d="M193.842 214.206C200.736 209.149 205.056 202.783 204.62 193.976C204.402 189.093 202.569 184.821 199.427 181.071C192.97 173.441 181.974 171.174 173.073 175.665C167.357 178.542 163.779 183.164 161.86 189.18C159.94 195.241 161.205 200.908 163.736 206.533C159.285 204.789 155.402 202.304 151.824 199.382C146.806 195.328 142.705 190.401 139.389 184.908C139.214 184.603 138.996 184.297 138.821 183.992C137.905 182.466 136.683 181.551 134.851 182.335C132.931 183.12 132.582 184.733 133.106 186.521C133.978 189.268 134.72 192.145 136.073 194.674C138.56 199.339 141.396 203.829 144.232 208.277C147.853 213.988 151.693 219.525 155.315 225.236C156.1 226.501 156.58 228.027 156.973 229.465C157.758 232.474 156.885 234.872 154.529 236.572C152.086 238.316 149.468 238.359 147.199 236.615C144.101 234.218 141.047 231.689 138.472 228.811C114.78 202.347 120.845 159.621 150.951 140.655C156.144 137.386 158.98 137.822 162.732 142.661C164.87 145.408 166.877 148.242 168.972 151.075C178.091 163.545 196.417 164.765 207.412 156.482C210.292 154.302 213.346 152.296 216.488 150.465C222.029 147.282 226.087 148.111 229.97 153.255C231.41 155.13 232.632 157.266 233.592 159.446C238.261 170.128 241.795 181.115 241.009 192.93C239.7 212.462 230.974 227.809 214.83 238.926C211.165 241.455 208.285 241.368 205.667 238.97C203.223 236.79 202.7 233.651 204.489 230.904C205.187 229.814 206.147 228.899 207.063 227.983C215.266 220.005 222.945 211.59 228.661 201.562C229.359 200.385 230.014 199.121 230.538 197.857C231.585 195.328 231.061 193.497 229.141 192.363C227.221 191.273 225.563 191.666 223.774 193.715C222.771 194.848 221.855 196.069 220.851 197.203C213.87 205.094 205.187 210.5 195.457 214.424C195.064 214.555 194.671 214.598 194.279 214.685C194.148 214.555 193.973 214.38 193.842 214.206Z" fill="#02677D"/>
<path d="M168.884 257.456C172.68 260.115 176.433 261.031 180.36 261.379C194.235 262.557 206.147 258.371 215.79 248.125C217.448 246.382 219.106 244.681 220.938 243.112C222.029 242.196 223.338 241.455 224.647 240.888C226.436 240.147 228.094 240.714 229.49 241.978C230.93 243.242 230.712 244.856 230.101 246.425C229.534 247.951 228.88 249.433 228.618 251.265C229.49 250.567 230.319 249.826 231.192 249.128C232.283 248.256 233.286 247.341 234.421 246.556C236.035 245.466 237.737 245.03 239.482 246.207C241.271 247.384 241.446 249.172 241.097 251.047C240.879 252.311 240.486 253.532 240.617 255.145C241.489 254.491 242.318 253.837 243.191 253.139C245.155 251.526 246.682 251.308 248.034 252.529C249.605 253.968 249.998 256.278 248.296 257.979C245.591 260.682 242.711 263.298 239.657 265.565C224.822 276.552 208.198 282.873 189.741 284.181C148.813 287.015 111.464 264.126 95.4068 226.413C95.0577 225.585 94.7523 224.713 94.316 223.667C98.5484 226.893 102.257 230.337 106.49 232.91C129.266 246.687 152.74 249.477 177.175 237.139C180.622 235.395 184.461 234.305 188.083 232.91C188.476 232.779 188.956 232.735 189.392 232.692C192.184 232.517 194.933 232.735 196.373 235.569C197.813 238.359 196.853 241.019 194.977 243.242C189.61 249.521 182.76 253.444 174.906 255.755C173.117 256.278 171.284 256.758 168.884 257.456Z" fill="#02677D"/>
<path d="M214.306 136.688C214.001 150.247 203.485 160.188 189.785 159.882C177.524 159.577 167.226 148.634 167.532 136.165C167.837 122.911 178.571 112.84 192.097 113.188C204.271 113.494 214.568 124.393 214.306 136.688Z" fill="#02677D"/>
<path d="M303.972 250.087C303.928 259.287 296.859 266.306 287.609 266.219C278.839 266.175 271.334 258.72 271.465 250.131C271.596 241.106 279.057 233.651 287.871 233.738C296.772 233.825 303.972 241.15 303.972 250.087Z" fill="#DCC32E"/>
<path d="M308.335 106.431C308.291 115.238 300.83 122.736 292.278 122.606C283.115 122.475 276.003 115.238 276.047 106.125C276.134 96.9698 283.159 90.0377 292.322 90.0813C301.397 90.2121 308.379 97.3186 308.335 106.431Z" fill="#DCC32E"/>
<path d="M49.1997 147.675C56.6172 147.675 62.2459 153.386 62.2022 160.842C62.1586 168.035 56.3991 173.747 49.1124 173.703C41.8257 173.703 36.1535 168.035 36.1535 160.711C36.1098 153.255 41.6948 147.675 49.1997 147.675Z" fill="#DCC32E"/>
<path d="M148.988 52.325C148.857 51.0607 148.857 50.1015 148.639 49.2295C147.81 45.8725 147.679 46.2212 151.126 45.4801C160.812 43.3873 170.63 42.2538 180.534 42.341C195.85 42.5154 210.728 45.1313 225.171 50.3631C225.694 50.5375 226.218 50.8427 226.742 51.0607C225.956 52.8918 225.258 54.6357 224.385 56.6413C199.733 47.6164 174.6 46.0905 148.988 52.325Z" fill="#DCC32E"/>
<path d="M309.469 182.03C303.666 181.943 299.216 177.322 299.303 171.523C299.434 165.899 304.146 161.234 309.644 161.321C315.534 161.408 320.116 166.073 320.028 171.959C319.941 177.758 315.36 182.117 309.469 182.03Z" fill="#DCC32E"/>
<path d="M125.121 51.5403C125.121 45.7853 129.615 41.1639 135.374 41.0331C140.829 40.9459 145.89 45.9597 145.89 51.4095C145.846 57.1645 141.265 61.7423 135.505 61.7423C129.484 61.7859 125.121 57.4697 125.121 51.5403Z" fill="#DCC32E"/>
<path d="M80.9644 86.2446C92.3525 73.5574 106.14 63.0938 122.285 55.4641C123.288 57.208 124.248 58.8212 125.339 60.7395C109.893 68.2384 96.3231 78.2661 84.9786 90.9532C83.626 89.3401 82.3606 87.9013 80.9644 86.2446Z" fill="#DCC32E"/>
<path d="M307.069 185.126C308.64 185.126 309.818 185.344 310.909 185.082C312.873 184.603 313.178 185.518 313.047 187.131C312.305 196.854 310.516 206.402 307.549 215.688C305.761 221.356 303.361 226.806 301.223 232.343C300.917 233.128 300.437 233.869 299.914 234.828C298.081 233.782 296.379 232.823 294.547 231.776C301.703 217.04 305.717 201.519 307.069 185.126Z" fill="#DCC32E"/>
<path d="M242.842 65.361C243.846 63.4426 244.718 61.8295 245.722 59.8676C259.423 67.6717 271.552 77.3941 282.024 89.5581C280.454 90.866 279.014 92.1304 277.312 93.5255C267.407 82.2335 255.976 72.8599 242.842 65.361Z" fill="#DCC32E"/>
<path d="M66.7837 104.73C68.7035 105.82 70.2307 106.736 72.1505 107.826C64.6457 119.685 59.2788 132.503 55.9191 145.974C55.3955 146.062 55.2646 146.149 55.1337 146.105C53.5193 145.713 51.9049 145.277 49.9414 144.754C53.3011 130.453 59.017 117.199 66.7837 104.73Z" fill="#DCC32E"/>
<path d="M303.012 122.606C304.932 128.317 307.026 133.811 308.553 139.435C309.993 144.667 310.953 150.029 312 155.392C312.567 158.138 312.262 158.4 309.469 158.4C306.284 158.444 306.284 158.444 305.673 154.999C304.015 145.626 301.572 136.426 297.994 127.576C297.688 126.835 297.47 126.094 297.121 125.178C298.997 124.35 300.786 123.565 303.012 122.606Z" fill="#DCC32E"/>
<path d="M74.8994 88.5118C79.3063 88.599 83.0587 92.3048 83.0151 96.5775C83.0151 101.025 79.1754 104.861 74.8121 104.774C70.318 104.73 66.6964 100.981 66.7401 96.4903C66.8273 92.0868 70.5361 88.4246 74.8994 88.5118Z" fill="#DCC32E"/>
<path d="M235.075 65.1866C230.799 65.1866 227.701 62.0475 227.701 57.7749C227.701 53.4586 230.799 50.4067 235.119 50.4067C239.439 50.4067 242.493 53.5022 242.493 57.8185C242.449 62.1783 239.395 65.1866 235.075 65.1866Z" fill="#DCC32E"/>
<path d="M7.13764 167.904C7.13764 169.779 8.1412 171.741 5.4796 173.005C3.73428 173.834 4.25788 176.929 6.30862 177.496C8.18483 178.019 10.3228 178.019 12.2427 177.714C13.1153 177.583 14.2062 176.145 14.3371 175.142C14.468 174.313 13.5517 173.093 12.8099 172.351C11.9809 171.48 11.1082 169.038 11.8936 168.166C12.2427 167.817 13.2026 167.73 13.8135 167.904C16.7369 168.776 18.1331 170.956 18.3949 173.877C18.6567 177.017 17.9586 179.938 15.0352 181.594C11.3264 183.643 7.4867 183.556 3.86518 181.289C0.985418 179.458 -0.105402 175.709 0.985418 172.177C1.85807 169.43 3.90881 167.948 7.13764 167.904Z" fill="#02677D"/>
<path d="M278.054 35.6705C276.352 34.5805 274.214 34.3189 274.563 31.3978C274.781 29.6975 272.207 28.6511 270.549 29.6539C268.367 30.9618 267.058 32.9238 266.884 35.4961C266.753 37.5888 268.934 39.4635 270.549 38.4608C272.949 36.9784 274.083 38.7224 275.828 39.7251C274.519 41.8178 272.73 42.8642 270.462 42.9078C265.051 43.0822 260.95 37.5452 262.608 32.4442C265.051 25.0761 272.469 22.7653 277.356 27.8664C279.45 30.0463 279.755 32.6622 278.054 35.6705Z" fill="#02677D"/>
<path d="M109.806 19.8443C107.973 20.7599 106.62 22.5038 104.308 20.6727C102.999 19.6699 100.992 21.065 100.686 22.8962C100.337 24.9889 102.17 28.6512 104.046 29.5667C105.791 30.4387 108.235 29.5231 108.278 27.6048C108.322 24.8145 110.373 24.8145 112.031 23.9861C113.776 27.692 112.467 31.1799 108.671 33.0546C104.221 35.2781 100.206 33.9266 97.6757 29.3923C95.0141 24.6837 96.0177 19.7571 100.076 17.3592C103.741 15.3101 107.406 16.0948 109.806 19.8443Z" fill="#02677D"/>
<path d="M27.3396 96.4467C26.5106 98.0598 26.5979 100.24 23.7617 100.283C21.8419 100.327 21.0129 102.899 22.2346 104.556C23.8054 106.649 26.0307 107.739 28.6923 107.521C30.6557 107.346 32.1392 105.036 31.0048 103.553C29.3031 101.373 30.8303 100.022 31.6593 98.2342C33.6228 99.019 34.7136 100.458 35.2372 102.376C36.1535 105.69 33.9718 110.224 30.6994 111.663C27.1651 113.232 23.9799 111.924 21.1001 109.919C18.4385 108.087 17.2605 105.428 17.7404 102.158C18.4385 97.1442 23.02 94.3539 27.3396 96.4467Z" fill="#02677D"/>
<path d="M351.095 153.473C350.659 151.468 349.437 149.724 351.793 147.98C353.277 146.89 352.186 143.969 350.179 143.882C348.128 143.751 345.815 144.1 343.939 144.928C341.845 145.844 341.845 149.157 343.939 149.811C346.557 150.64 346.208 152.514 346.426 154.476C344.332 154.999 342.63 154.52 341.103 153.255C336.958 149.811 337.743 142.661 342.543 140.176C348.477 137.124 354.76 139.391 356.113 145.059C357.116 149.157 355.284 152.383 351.095 153.473Z" fill="#02677D"/>
<path d="M307.244 78.0917C306.371 76.6965 304.452 76.1298 305.368 74.1678C301.528 73.5575 299.172 69.808 302.968 65.7098C303.972 64.6198 305.281 63.6606 306.633 63.0502C310.167 61.4371 312.829 63.2246 313.44 67.7153C315.229 66.2329 316.843 64.8814 318.589 63.4426C319.461 64.4454 320.203 65.3174 321.119 66.3637C316.494 70.244 312 74.0806 307.244 78.0917ZM309.775 66.4945C307.419 66.4509 304.801 68.718 305.193 70.2004C305.411 70.9852 306.459 71.9879 307.288 72.1187C308.815 72.3803 311.302 69.9824 311.084 68.5872C310.909 67.7153 310.08 66.9741 309.775 66.4945Z" fill="#02677D"/>
<path d="M263.349 18.4927C260.688 24.0297 258.114 29.3051 255.496 34.7113C254.012 34.0573 252.223 34.2317 252.092 32.0518C246.9 32.4442 244.718 29.4795 246.682 24.6401C247.031 23.7681 247.467 22.9397 248.034 22.155C250.652 18.4491 254.361 18.5799 256.848 22.7653C257.895 20.7162 258.855 18.8415 259.902 16.7924C261.081 17.4027 262.084 17.8823 263.349 18.4927ZM255.321 24.7709C254.885 24.4657 254.187 23.5937 253.314 23.4193C251.83 23.1141 249.823 25.73 250.216 27.6484C250.391 28.4331 251.438 29.4359 252.223 29.6103C253.619 29.8719 255.365 27.3432 255.321 24.7709Z" fill="#02677D"/>
<path d="M346.339 129.189C347.473 128.84 348.477 128.579 349.481 128.273C352.709 127.271 352.709 127.271 353.582 131.107C347.91 132.851 342.238 134.595 336.042 136.47C335.867 134.77 335.736 133.374 335.562 131.5C332.507 129.145 332.856 125.396 336.958 123.434C338.049 122.911 339.271 122.518 340.492 122.388C345.205 121.821 347.255 124.132 346.339 129.189ZM338.965 131.064C341.888 131.107 343.939 129.756 343.896 128.317C343.852 126.922 342.979 126.268 341.583 126.268C339.489 126.224 337.176 127.532 337.438 128.927C337.612 129.843 338.616 130.628 338.965 131.064Z" fill="#02677D"/>
<path d="M82.0116 34.9729C80.7462 33.0982 79.6118 31.4414 78.3464 29.5667C79.35 28.8255 80.2662 28.1279 81.4443 27.256C84.9349 32.2698 88.3383 37.1092 92.0471 42.3846C90.5199 43.0822 89.2546 43.649 87.4657 44.4774C86.4185 47.878 82.7533 48.9244 79.6117 45.7417C78.4773 44.6081 77.4737 43.1258 76.9065 41.5999C75.5103 37.9376 77.4301 35.4089 82.0116 34.9729ZM80.528 38.8532C80.5717 41.2947 82.5788 43.7362 83.975 43.431C84.7604 43.2566 85.8076 42.2102 85.9821 41.4255C86.2876 39.7251 83.9314 37.1092 82.4915 37.458C81.6189 37.6324 80.9207 38.5044 80.528 38.8532Z" fill="#02677D"/>
<path d="M337.438 121.952C336.434 119.51 335.518 117.2 334.558 114.845C332.464 115.892 332.289 117.592 333.816 118.856C334.82 119.685 335.562 120.818 336.565 121.995C333.467 123.173 331.198 121.777 330.02 118.551C328.711 114.976 330.282 111.793 334.035 110.398C337.787 109.003 341.321 110.529 342.543 114.104C343.721 117.592 341.976 120.339 337.438 121.952ZM337.482 113.363C337.307 113.581 337.089 113.755 336.914 113.973C337.394 115.107 337.831 116.24 338.311 117.374C338.572 117.374 338.791 117.418 339.052 117.418C339.27 116.589 339.925 115.586 339.663 114.976C339.314 114.278 338.223 113.886 337.482 113.363Z" fill="#02677D"/>
<path d="M229.578 15.746C229.447 15.0484 229.49 14.2201 229.141 13.8277C228.792 13.4789 228.007 13.5661 227.396 13.5661C226.087 13.5225 224.778 13.5661 223.295 13.5661C224.473 10.5578 226.392 9.68584 229.447 10.4706C232.327 11.1682 234.028 13.0429 233.505 15.4844C232.894 18.4491 231.934 21.3266 231.018 24.6401C229.49 24.0297 228.269 23.5065 226.567 22.809C225.171 23.3321 223.338 23.027 221.898 21.3702C220.764 20.0623 220.982 18.5363 221.767 17.0976C222.684 15.2664 223.513 15.1792 229.578 15.746ZM228.661 17.8387C227.265 18.1439 226.218 18.3619 225.214 18.6235C225.433 19.1467 225.563 19.9751 225.956 20.1495C227.178 20.629 228.138 20.1931 228.661 17.8387Z" fill="#02677D"/>
<path d="M15.1661 150.16C17.8277 149.986 18.6131 148.765 17.8714 146.759C17.435 145.582 17.4787 144.274 17.3041 143.01C17.5659 142.879 17.8714 142.748 18.1331 142.617C18.9185 143.271 19.8348 143.795 20.4021 144.623C22.0165 146.934 21.1874 151.075 18.8749 152.95C16.4751 154.912 12.0682 154.607 9.66839 152.253C7.48675 150.16 7.22495 146.541 9.10116 144.1C10.4538 142.356 13.3772 141.397 15.3843 142.225C15.8206 142.399 16.2569 143.315 16.2133 143.838C15.9951 145.844 15.5588 147.893 15.1661 150.16ZM11.8937 149.724C12.1991 149.637 12.4609 149.55 12.7663 149.419C12.9408 148.198 13.1154 146.977 13.2899 145.8C13.0717 145.669 12.8536 145.538 12.6354 145.364C12.0246 146.018 11.021 146.585 10.8901 147.282C10.8028 148.024 11.5446 148.896 11.8937 149.724Z" fill="#02677D"/>
<path d="M329.279 97.6675C329.759 96.7519 330.413 96.1415 330.326 95.6183C330.239 95.0951 329.41 94.7028 328.93 94.2232C328.101 93.3948 327.271 92.5228 326.399 91.6509C326.53 91.3457 326.661 91.0841 326.792 90.7789C327.926 90.8225 329.191 90.6045 330.151 91.0405C332.464 92.0433 333.598 94.0924 333.86 96.5339C334.078 98.7138 332.595 99.9346 330.849 100.894C328.711 102.071 326.53 103.248 323.912 104.687C323.475 103.292 323.17 102.027 322.734 100.85C322.603 100.458 321.948 100.283 321.774 99.891C321.076 98.5394 319.941 97.1007 320.028 95.7491C320.116 94.7028 321.599 93.4384 322.777 92.8716C324.392 92.0869 325.875 93.046 326.922 94.3976C327.621 95.3131 328.275 96.2723 329.279 97.6675ZM327.184 98.1906C325.919 97.4931 325.003 96.9699 324.086 96.4467C323.912 97.0135 323.475 97.7111 323.65 98.1034C324.261 99.3242 325.264 99.6294 327.184 98.1906Z" fill="#02677D"/>
<path d="M348.739 162.716C350.746 162.237 351.095 161.408 350.222 160.144C349.524 159.098 349.088 157.833 348.521 156.656C348.782 156.438 349.001 156.22 349.262 156.002C350.179 156.394 351.313 156.569 352.011 157.223C353.975 159.01 354.149 161.452 353.538 163.85C352.971 166.03 351.139 166.596 349.175 166.814C347.386 166.989 345.554 167.207 343.765 167.294C341.452 167.425 340.667 166.422 341.147 164.155C341.278 163.545 341.234 162.716 340.972 162.149C339.794 159.708 340.449 157.266 342.587 156.394C344.986 155.435 347.168 156.525 347.997 159.185C348.259 160.275 348.433 161.452 348.739 162.716ZM346.557 161.931C345.728 161.103 345.117 160.536 344.506 159.97C344.157 160.406 343.372 161.103 343.459 161.277C343.896 161.975 344.55 162.585 345.205 163.109C345.292 163.196 345.903 162.542 346.557 161.931Z" fill="#02677D"/>
<path d="M345.903 189.529C341.321 188.439 339.881 183.295 342.456 179.894C344.201 177.627 348.346 176.929 351.226 178.412C353.975 179.85 355.196 183.033 354.106 186.041C353.233 188.483 350.353 190.183 347.823 189.573C347.343 189.442 346.775 188.526 346.732 187.916C346.601 185.911 346.688 183.905 346.688 181.9C344.376 182.205 343.677 183.556 344.506 185.3C345.161 186.434 345.379 187.785 345.903 189.529ZM350.266 181.594C350.004 181.725 349.742 181.812 349.481 181.943C349.481 183.164 349.481 184.385 349.481 185.649C349.655 185.736 349.873 185.867 350.048 185.954C350.571 185.344 351.488 184.69 351.488 184.079C351.444 183.251 350.702 182.423 350.266 181.594Z" fill="#02677D"/>
<path d="M180.84 10.1654C180.883 6.15431 183.501 3.36401 187.254 3.45121C190.875 3.5384 193.362 6.19791 193.406 9.99097C193.45 13.9584 190.788 16.8359 187.079 16.7923C183.327 16.7923 180.84 14.1328 180.84 10.1654ZM189.348 9.81657C189.261 8.50862 189.261 6.98268 187.254 6.80828C185.77 6.67749 184.854 8.02904 184.854 10.2526C184.854 11.7785 184.985 13.2608 186.948 13.4352C188.476 13.6096 189.348 12.3017 189.348 9.81657Z" fill="#02677D"/>
<path d="M77.8228 45.5673C75.9029 47.1804 73.9831 48.8372 71.5396 50.8863C72.805 51.1915 73.6777 51.7146 74.3758 51.5403C75.0739 51.3223 75.6411 50.4939 76.1211 49.8399C76.9065 48.75 77.5173 47.5728 78.3027 46.352C80.9207 48.9679 78.87 52.4994 76.4702 54.0254C73.285 56.0309 69.7071 55.0717 67.5254 51.5839C65.5183 48.4012 66.3037 44.7825 69.3144 42.8206C72.2814 40.9458 75.4666 41.9486 77.8228 45.5673ZM69.7071 48.1832C69.9689 48.314 70.2307 48.4012 70.5361 48.532C71.4524 47.7036 72.3687 46.8752 73.285 46.0469C73.1977 45.7853 73.1104 45.5237 73.0232 45.3057C72.1505 45.3929 71.0161 45.2185 70.4488 45.6981C69.9252 46.1777 69.9252 47.3548 69.7071 48.1832Z" fill="#02677D"/>
<path d="M61.1987 60.3036C59.4534 62.2219 57.7953 64.0095 55.701 66.2766C56.9227 66.4946 57.7953 66.887 58.4062 66.669C59.1043 66.3638 59.6716 65.579 60.0206 64.8378C60.6315 63.6607 61.0678 62.3963 61.635 61.0012C64.1221 63.2247 63.9039 65.8406 61.4605 68.3257C58.7116 71.1596 54.9592 70.9852 52.0795 67.9769C49.3306 65.0994 49.4615 61.2628 52.3412 58.7341C55.0028 56.3797 58.4062 56.9465 61.1987 60.3036ZM53.5193 63.9659C53.7811 64.0531 54.0429 64.0967 54.3047 64.1839C55.1337 63.2683 55.9191 62.3091 56.7482 61.3936C56.6173 61.132 56.53 60.914 56.3991 60.6524C55.5701 60.8268 54.3484 60.7396 53.9557 61.2628C53.4757 61.9167 53.6502 63.0503 53.5193 63.9659Z" fill="#02677D"/>
<path d="M166.354 16.4436C162.514 17.5772 162.514 17.5772 162.121 14.1765C161.947 12.825 161.816 11.4298 161.598 10.0783C161.423 8.94471 160.943 7.68036 159.591 8.20354C158.849 8.50873 158.063 9.77308 158.063 10.6014C158.063 12.825 158.5 15.0485 158.805 17.5336C157.496 17.7516 156.362 17.926 154.966 18.144C154.442 13.9149 153.962 9.90387 153.438 5.71843C155.009 5.80562 156.536 4.14889 157.714 6.32881C158.238 5.89282 158.762 5.36964 159.329 4.97726C161.51 3.58211 164.172 4.27968 164.783 6.76479C165.568 9.94747 165.83 13.261 166.354 16.4436Z" fill="#02677D"/>
<path d="M282.024 37.7632C285.428 37.7632 288.307 40.5971 288.307 43.9542C288.307 47.5728 285.122 50.9299 281.632 50.9735C278.141 51.0171 275.13 48.0524 275.174 44.6953C275.261 41.1639 278.577 37.7632 282.024 37.7632ZM278.97 45.9161C279.363 46.2649 280.017 47.1368 280.89 47.3548C282.33 47.7036 284.773 45.2621 284.599 43.5182C284.511 42.6898 283.551 41.5998 282.766 41.3383C281.326 40.9459 279.101 43.3874 278.97 45.9161Z" fill="#02677D"/>
<path d="M314.094 87.6398C313.353 86.5063 312.698 85.5471 311.956 84.4136C315.491 82.1028 318.85 79.8793 322.385 77.5686C323.214 78.9202 325.046 79.6613 323.781 81.6669C324.261 81.8412 324.784 82.0156 325.264 82.2336C327.926 83.5416 328.537 86.5935 326.268 88.4682C323.825 90.4737 321.076 92.1305 318.327 94.0052C317.541 92.828 316.887 91.8689 316.102 90.7353C318.065 89.4274 319.941 88.2066 321.817 86.9423C322.821 86.2883 323.912 85.5035 323.083 84.152C322.21 82.7568 320.988 83.1492 319.854 83.8904C317.978 85.0675 316.189 86.2883 314.094 87.6398Z" fill="#02677D"/>
<path d="M35.4553 94.1359C37.8115 94.9642 39.1205 94.0487 39.1205 92.0432C39.1205 90.7352 39.6441 89.4709 39.9932 87.9449C42.8729 90.0812 42.9602 93.0459 40.7785 95.9234C38.5096 98.8445 34.9754 99.1933 31.7029 96.7518C28.6486 94.4847 28.0814 90.6044 30.3503 87.7269C32.4883 85.0238 35.848 84.8494 39.2514 87.4653C37.9861 89.6888 36.7207 91.9124 35.4553 94.1359ZM35.2372 89.5144C33.9282 88.6861 32.8374 88.8169 32.3574 89.994C32.052 90.7352 32.4883 91.7816 32.6192 92.6535C32.881 92.6535 33.1428 92.6535 33.361 92.6535C34.0155 91.6072 34.5827 90.6044 35.2372 89.5144Z" fill="#02677D"/>
<path d="M46.8872 85.8958C46.1454 86.9857 45.4909 87.9013 44.6619 89.0785C41.2149 86.637 37.8552 84.239 34.2336 81.6667C35.3681 80.446 36.328 79.4432 37.2443 78.4405C37.4188 78.5713 37.637 78.702 37.8115 78.8764C37.8115 78.3533 37.7679 77.8737 37.8115 77.3941C38.1606 74.1242 40.9095 72.8599 43.9201 74.5602C44.531 74.909 45.1418 75.345 45.7091 75.781C47.498 77.0453 49.2433 78.3097 51.2068 79.7048C50.465 80.7948 49.7669 81.7539 48.9815 82.8875C46.9744 81.4487 45.1418 80.1408 43.3093 78.8764C42.3057 78.1789 41.1713 77.5685 40.2986 78.92C39.4696 80.1844 40.255 81.1436 41.2585 81.8847C43.0911 83.1927 44.9237 84.5006 46.8872 85.8958Z" fill="#02677D"/>
<path d="M12.1991 135.206C11.0646 133.287 10.9337 131.543 12.2427 129.93C13.5081 128.404 15.2534 128.622 16.9114 128.971C19.093 129.451 21.2747 130.148 23.4563 130.628C24.8962 130.933 24.8526 131.761 24.5471 132.895C24.2417 134.116 23.849 134.9 22.3219 134.421C20.5766 133.898 18.8313 133.462 17.0859 133.026C15.9079 132.721 14.6425 132.721 14.5116 134.116C14.468 134.857 15.3406 136.121 16.126 136.426C18.264 137.255 20.5329 137.734 22.9764 138.388C22.6709 139.609 22.4091 140.699 22.0164 142.138C17.8713 141.048 13.9444 140.001 9.8429 138.912C10.4538 137.386 9.79926 135.511 12.1991 135.206Z" fill="#02677D"/>
<path d="M195.719 4.27966C197.159 4.45406 198.206 4.62845 199.515 4.80284C199.253 7.24435 198.991 9.51147 198.773 11.7786C198.686 12.9557 198.467 14.3073 200.082 14.4817C201.653 14.6561 202.133 13.4353 202.307 12.0838C202.613 9.86026 202.918 7.68034 203.223 5.23883C204.532 5.36962 205.667 5.50042 207.02 5.63121C206.54 9.51147 206.147 13.2173 205.623 16.9232C205.58 17.3592 204.751 18.0132 204.402 17.9696C203.354 17.8388 202.351 17.4028 200.78 16.9232C199.864 17.6644 198.075 18.1004 196.286 16.8796C194.453 15.6152 194.497 13.7405 194.759 11.7786C195.108 9.42427 195.37 6.98276 195.719 4.27966Z" fill="#02677D"/>
<path d="M139.432 21.2831C137.992 21.6755 136.989 21.9806 135.68 22.373C135.025 20.2803 134.458 18.2748 133.804 16.3128C133.411 15.1357 133.236 13.3918 131.404 13.8713C129.397 14.3945 129.92 16.0513 130.357 17.4464C130.88 19.3211 131.448 21.1959 132.015 23.027C129.135 24.9453 128.48 24.7709 127.564 21.7626C126.822 19.3211 126.081 16.9232 125.426 14.4381C125.252 13.7405 125.383 12.3454 125.644 12.2582C126.735 11.953 128.001 10.5579 129.048 12.4326C129.571 11.8222 129.964 11.2118 130.488 10.7323C132.364 9.07551 135.2 9.3807 136.203 11.6478C137.512 14.7433 138.341 17.9696 139.432 21.2831Z" fill="#02677D"/>
<path d="M243.366 29.1307C242.013 28.5639 240.966 28.1715 239.744 27.6483C240.573 25.3812 241.402 23.2885 242.144 21.1958C242.537 20.0622 242.929 18.7979 241.402 18.2747C240.006 17.7951 239.264 18.7543 238.784 19.8878C237.955 21.9369 237.126 24.0297 236.341 26.0788C232.545 25.3812 232.501 25.294 233.679 22.1549C234.814 19.2338 235.904 16.3563 237.213 12.9993C238.653 13.8276 239.875 14.5252 241.053 15.2228C240.966 15.3536 240.879 15.528 240.791 15.6588C241.664 15.5716 242.493 15.3536 243.366 15.4408C245.984 15.6152 247.423 17.7079 246.551 20.411C245.678 23.2885 244.5 26.0352 243.366 29.1307Z" fill="#02677D"/>
<path d="M298.823 52.8047C298.779 56.3362 295.463 59.6497 291.973 59.6497C288.613 59.6497 285.689 56.7286 285.646 53.4587C285.602 49.8836 289.049 46.4829 292.627 46.5265C296.03 46.5265 298.867 49.4476 298.823 52.8047ZM295.245 51.4968C294.765 51.148 294.111 50.276 293.238 50.058C291.754 49.7092 289.049 52.4559 289.398 54.0255C289.573 54.8102 290.62 55.813 291.405 55.9874C292.845 56.3362 295.158 53.7639 295.245 51.4968Z" fill="#02677D"/>
<path d="M112.773 20.847C112.773 17.272 115.522 14.6124 119.187 14.656C122.721 14.656 125.557 17.8823 125.513 21.8498C125.47 25.2505 122.765 27.8664 119.143 27.91C115.565 27.9536 112.816 24.9017 112.773 20.847ZM121.63 23.0269C121.63 20.0622 120.147 17.9695 118.619 18.0567C117.18 18.1003 116.569 19.0159 116.612 20.3674C116.612 22.4602 118.27 24.8581 119.623 24.5529C120.539 24.3349 121.237 23.3757 121.63 23.0269Z" fill="#02677D"/>
<path d="M174.949 16.1384C173.248 16.2256 171.415 16.7052 169.932 16.2692C167.925 15.6588 167.837 13.5661 167.794 11.6914C167.75 9.86023 167.706 8.0727 167.575 6.24157C167.488 4.89002 167.575 3.88725 169.408 3.84365C171.11 3.80006 171.546 4.49763 171.502 6.02357C171.459 7.76751 171.633 9.51145 171.677 11.2554C171.721 12.4325 171.982 13.7405 173.422 13.3481C174.164 13.1737 175.037 11.953 175.168 11.1246C175.429 9.42425 175.255 7.63671 175.168 5.89278C175.08 4.49763 175.386 3.75646 177.044 3.71286C178.745 3.66926 179.138 4.36683 179.138 5.89278C179.095 8.50868 179.225 11.1246 179.182 13.7405C179.182 14.6125 178.92 16.0948 178.571 16.182C177.393 16.4436 176.127 16.1384 174.906 16.0512C174.906 16.0512 174.949 16.0948 174.949 16.1384Z" fill="#02677D"/>
<path d="M218.059 12.0401C216.575 11.2117 215.484 10.5578 214.35 9.99097C213.87 9.72938 213.303 9.59859 212.779 9.55499C212.605 9.55499 212.168 10.209 212.212 10.2962C212.561 10.7321 212.954 11.1245 213.434 11.4297C214.044 11.7785 214.786 11.9529 215.397 12.3017C217.797 13.566 218.364 16.1819 216.793 18.3183C215.572 19.9314 213.259 20.3674 210.597 19.4518C208.198 18.6235 207.325 17.3591 207.412 14.874C208.852 14.7432 210.161 14.656 211.165 16.1819C211.47 16.6179 212.386 16.7051 213.041 16.7923C213.172 16.8359 213.608 16.0948 213.564 16.0512C213.172 15.5716 212.735 15.0484 212.212 14.7868C210.554 13.9584 208.547 13.5224 208.372 11.1681C208.154 8.46503 209.856 6.6339 212.692 6.5467C216.008 6.41591 218.102 8.24704 218.059 12.0401Z" fill="#02677D"/>
<path d="M41.433 67.7153C41.8257 67.2357 42.5239 66.3638 43.3093 65.4046C44.0074 65.8406 44.6182 66.1894 45.4036 66.6254C45.8836 66.233 46.4072 65.797 47.018 65.2738C47.6725 65.797 48.2834 66.2766 48.9815 66.8433C48.6325 67.4973 48.3707 68.0205 47.9343 68.8489C49.2869 69.9388 50.5959 71.1596 52.0794 72.0752C52.5594 72.3803 53.563 71.8136 54.6538 71.5956C55.0901 72.2059 57.1409 72.1188 56.1809 74.0807C55.221 76.0862 53.1266 77.1326 51.3377 76.217C49.7669 75.3886 48.4579 74.0807 46.9308 73.1215C46.2763 72.6855 45.3164 72.7727 44.5746 72.3803C43.7892 71.988 42.9602 71.5084 42.4802 70.8108C41.9566 70.1568 41.8257 69.1105 41.433 67.7153Z" fill="#02677D"/>
<path d="M141.876 5.10803C142.181 5.9364 142.443 6.59038 142.705 7.24435C142.792 7.11356 142.879 7.02636 142.967 6.89557C143.708 7.41875 144.755 7.85473 145.061 8.55231C145.279 9.07549 144.494 10.0347 143.926 10.6886C143.534 14.7433 144.494 16.5744 147.33 16.6616C147.155 17.708 147.373 19.0595 146.763 19.6699C145.628 20.8471 142.748 20.4983 141.832 19.1467C141.178 18.144 140.829 16.9232 140.436 15.7896C140.087 14.7433 140.305 13.1301 139.65 12.6942C136.858 10.7758 138.254 8.37791 138.647 5.8492C139.607 5.67481 140.698 5.41322 141.876 5.10803Z" fill="#02677D"/>
<path d="M11.4573 123.303C11.6755 122.649 12.0246 121.646 12.3736 120.513C13.2026 120.644 13.9008 120.775 14.7734 120.949C15.1225 120.426 15.4716 119.859 15.9079 119.118C16.6933 119.379 17.3914 119.641 18.1768 119.903C18.1332 120.687 18.0895 121.298 18.0459 122.126C19.4858 122.606 20.882 123.216 22.3219 123.565C22.8891 123.696 23.9799 123.521 24.1981 123.172C24.9399 121.734 25.9871 122.257 26.7288 122.824C27.2088 123.172 27.4269 124.262 27.296 124.916C26.7288 127.401 24.8962 128.404 22.3655 127.75C21.1875 127.445 20.0094 126.966 18.8313 126.66C17.8714 126.399 16.9551 125.57 15.8642 126.748C15.6025 127.009 14.2062 126.53 13.5953 126.05C12.8536 125.44 12.3736 124.48 11.4573 123.303Z" fill="#02677D"/>
<path d="M338.834 106.779C338.136 107.128 337.525 107.433 336.74 107.869C334.776 104.6 332.944 107.477 331.155 108.131C330.5 108.349 330.239 109.613 330.02 110.616C329.235 111.183 328.319 112.84 327.01 111.183C325.701 109.57 325.57 107.215 327.097 106.038C328.58 104.905 330.369 104.251 331.984 103.248C332.595 102.856 332.944 102.071 333.555 101.591C334.209 101.068 334.994 100.458 335.78 100.327C336.696 100.196 337.7 100.545 339.14 100.719C339.401 101.242 339.925 102.245 340.492 103.335C339.794 103.815 339.227 104.251 338.529 104.73C338.616 105.341 338.703 106.038 338.834 106.779Z" fill="#02677D"/>
<path d="M18.7876 162.542C18.7003 163.937 18.6131 165.027 18.5258 166.378C14.2498 166.03 10.1483 165.725 6.04683 165.419C4.91237 165.332 3.73429 165.245 2.59984 165.114C1.55265 165.027 0.330931 165.289 0.46183 163.501C0.592728 161.931 0.94179 160.972 2.90527 161.19C8.05394 161.67 13.2462 162.062 18.7876 162.542Z" fill="#02677D"/>
<path d="M62.6386 48.4012C64.4711 49.8836 66.1728 50.7992 64.4711 53.1971C64.0784 53.7203 64.602 55.2898 65.1693 56.0746C66.2164 57.5133 67.6127 58.7341 69.0526 60.26C68.1363 61.132 67.3073 61.8731 66.2164 62.9195C63.3367 59.8676 60.5005 56.9029 57.5771 53.851C58.9298 52.8483 59.3661 50.5376 61.4605 51.8891C61.8095 50.712 62.2022 49.6656 62.6386 48.4012Z" fill="#02677D"/>
<path d="M296.554 66.1894C295.289 64.7071 294.547 63.8351 294.198 63.3991C296.947 60.3472 299.696 57.2953 302.532 54.1562C303.666 55.4642 305.761 55.9002 304.582 57.9929C305.673 58.2981 306.764 58.6469 308.422 59.1265C307.026 60.26 306.11 61.0012 305.019 61.8732C303.71 61.0012 302.095 59.9112 300.437 61.6552C299.172 63.0067 298.038 64.4455 296.554 66.1894Z" fill="#02677D"/>
<path d="M354.586 176.275C352.273 176.624 350.44 177.147 349.83 174.357C349.699 173.747 348.433 173.18 347.604 173.049C346.426 172.831 345.161 172.962 343.896 173.049C342.456 173.136 341.409 173.093 341.409 171.087C341.409 169.038 342.543 169.125 343.896 169.125C346.514 169.125 349.132 168.994 351.749 169.082C352.535 169.125 353.931 169.561 353.975 169.954C354.106 171.087 353.669 172.264 352.971 173.267C353.495 174.139 353.975 175.098 354.586 176.275Z" fill="#02677D"/>
<path d="M6.57043 158.836C6.74497 157.528 6.87586 156.394 7.0504 154.999C11.1955 155.479 15.2097 155.958 19.1367 156.438C19.7912 159.839 19.2676 160.449 16.2569 160.013C14.6861 159.795 13.0717 159.621 11.5009 159.446C9.97379 159.272 8.44664 159.098 6.57043 158.836Z" fill="#02677D"/>
<path d="M318.458 72.1624C319.287 73.2959 319.941 74.1679 320.77 75.3014C317.411 77.7866 314.138 80.2717 310.735 82.8004C309.906 81.754 309.208 80.882 308.291 79.7485C311.695 77.2198 314.967 74.7783 318.458 72.1624Z" fill="#02677D"/>
<path d="M146.937 6.80839C148.29 6.5904 149.424 6.37241 150.777 6.15442C151.519 10.2963 152.26 14.2637 152.958 18.1876C149.555 19.7135 149.206 19.4955 148.639 16.1385C148.072 13.1738 147.504 10.1655 146.937 6.80839Z" fill="#02677D"/>
<path d="M96.3667 42.6898C93.7051 43.5182 92.9197 42.3846 92.4398 37.1092C93.4433 36.8912 94.4469 36.6732 95.8431 36.368C96.0613 38.6352 96.1922 40.6843 96.3667 42.6898Z" fill="#02677D"/>
<path d="M25.3762 114.496C24.678 116.197 23.9799 117.941 23.2382 119.815C22.2346 119.423 21.4056 119.074 20.3148 118.638C20.9256 117.025 21.3183 115.368 22.191 114.06C22.5837 113.494 24.0672 113.712 25.0707 113.581C25.158 113.886 25.2453 114.191 25.3762 114.496Z" fill="#02677D"/>
<path d="M148.77 0.530171C149.293 1.40214 150.253 2.3613 150.166 3.18967C150.122 3.88725 148.901 4.93361 148.072 5.0644C146.719 5.2824 145.846 4.10524 146.108 2.84089C146.283 1.96892 147.243 1.27134 147.81 0.486572C148.203 0.486572 148.508 0.486572 148.77 0.530171Z" fill="#02677D"/>
<path d="M5.78505 156.918C4.99966 157.484 4.2579 158.313 3.42888 158.487C2.1199 158.749 0.985443 157.92 1.24724 156.525C1.37814 155.697 2.42533 154.563 3.16708 154.52C3.99611 154.433 4.9124 155.435 5.78505 155.915C5.78505 156.307 5.78505 156.612 5.78505 156.918Z" fill="#02677D"/>
<path d="M321.992 74.1243C321.425 73.3395 320.247 72.4675 320.378 71.8572C320.552 71.0288 321.556 69.9824 322.428 69.7208C322.908 69.59 324.348 70.8544 324.392 71.5084C324.435 72.3367 323.475 73.2523 322.908 74.0807C322.603 74.0807 322.297 74.0807 321.992 74.1243Z" fill="#02677D"/>
</g>
<defs>
<clipPath id="clip0_105_269">
<rect width="356" height="284" fill="white" transform="translate(0.418213 0.486572)"/>
</clipPath>
</defs>
</svg>
