<?xml version="1.0" encoding="utf-8"?>
<!-- Generator: Adobe Illustrator 23.0.5, SVG Export Plug-In . SVG Version: 6.00 Build 0)  -->
<svg version="1.1" id="Layer_1" xmlns="http://www.w3.org/2000/svg" xmlns:xlink="http://www.w3.org/1999/xlink" x="0px" y="0px"
	 viewBox="0 0 277.5 237.7" style="enable-background:new 0 0 277.5 237.7;" xml:space="preserve">
<style type="text/css">
	.st0{fill:#FFFFFF;}
	.st1{fill:#DCC32E;}
</style>
<g>
	<path class="st0" d="M71.1,180.3c-4.8-3.5-9.7-6.9-14.4-10.5c-0.9-0.7-1.4-2.3-1.6-3.5c-1-6.5-1.8-12.9-2.5-19.4
		c-0.2-1.7-0.8-2.7-2.4-3.3c-5.2-2.2-10.5-4.5-15.7-6.7c-1.7-0.7-2.5-1.6-2.3-3.6c0.7-6.9,1.9-13.6,4.2-20.2
		c0.6-1.8,1.5-2.5,3.5-2.4c5.8,0.2,11.7,0,17.5,0.1c1.6,0,2.4-0.5,3.1-1.9c2.9-5.3,5.9-10.5,9-15.7c0.6-1.1,0.7-1.8,0.1-2.8
		c-3.2-5.3-6.2-10.7-9.4-16c-0.7-1.1-0.8-2,0.3-3c5.4-4.8,10.8-9.7,16.1-14.5c1.1-1,2-0.9,3.3,0c4.6,3.6,9.3,7,13.9,10.6
		c1.2,0.9,2.1,0.9,3.4,0.2c5.6-2.7,11.2-5.3,16.8-7.7c1.5-0.6,2.4-1.5,2.6-3c0.3-2.9,0.3-5.9,0.5-8.8c0.1-2.4,0.1-4.8,0.3-7.2
		c0.1-2.2,1.4-3.5,3.5-3.9c2.9-0.5,5.8-1.1,8.7-1.3c3.8-0.4,7.7-0.4,11.6-0.7c1.7-0.1,2.6,0.5,3.1,2.2c1.5,5.4,3.3,10.8,4.9,16.2
		c0.3,1.1,0.9,1.6,2.2,1.9c6.5,1.2,13.1,2.6,19.6,4c1.4,0.3,2.3,0.2,3.3-0.9c3.5-4.1,7.1-8,10.5-12.1c1.4-1.6,2.6-1.9,4.3-0.9
		c5,2.9,10,5.7,15,8.5c1.3,0.7,2.5,1.6,3.9,2.5c-0.2,0.7-0.4,1.4-0.6,2.1c-1.8,5.2-3.5,10.4-5.4,15.5c-0.5,1.3-0.4,2.1,0.8,3.1
		c19,16.5,29.1,37.5,31.1,62.5c1.8,22.4-4.8,42.3-17.8,60.3c-0.9,1.3-1.8,2.5-2.3,3.3c-2.8-1.8-5.6-3.5-8.2-5.4
		c-0.5-0.3-0.8-1.6-0.5-2.2c0.5-1.2,1.5-2.2,2.3-3.2c34.7-48.4,7.2-112.8-47.9-124.1c-44.9-9.2-87.4,20.7-94.2,65.9
		c-2.2,15.1-0.4,29.6,5.7,43.5c0.3,0.7,0.6,1.4,0.9,2.1C71.5,179.9,71.3,180.1,71.1,180.3z"/>
	<path class="st0" d="M154,168.6c6.7-4.9,10.9-11.1,10.4-19.6c-0.2-4.7-2-8.9-5-12.5c-6.2-7.4-16.9-9.6-25.5-5.2
		c-5.5,2.8-9,7.3-10.9,13.1c-1.9,5.9-0.6,11.3,1.8,16.8c-4.3-1.7-8.1-4.1-11.5-6.9c-4.9-3.9-8.8-8.7-12-14c-0.2-0.3-0.4-0.6-0.5-0.9
		c-0.9-1.5-2.1-2.4-3.8-1.6c-1.9,0.8-2.2,2.3-1.7,4.1c0.8,2.7,1.6,5.4,2.9,7.9c2.4,4.5,5.2,8.9,7.9,13.2c3.5,5.5,7.2,10.9,10.7,16.4
		c0.8,1.2,1.2,2.7,1.6,4.1c0.8,2.9-0.1,5.2-2.4,6.9c-2.4,1.7-4.9,1.7-7.1,0c-3-2.3-6-4.8-8.4-7.6c-22.9-25.6-17.1-67,12.1-85.3
		c5-3.2,7.8-2.7,11.4,1.9c2.1,2.7,4,5.4,6,8.1c8.8,12.1,26.6,13.2,37.2,5.2c2.8-2.1,5.7-4,8.8-5.8c5.4-3.1,9.3-2.3,13,2.7
		c1.4,1.8,2.6,3.9,3.5,6c4.5,10.3,7.9,21,7.2,32.4c-1.3,18.9-9.7,33.8-25.3,44.5c-3.5,2.4-6.3,2.4-8.9,0c-2.4-2.1-2.9-5.1-1.1-7.8
		c0.7-1.1,1.6-1.9,2.5-2.8c7.9-7.7,15.4-15.9,20.9-25.6c0.7-1.1,1.3-2.4,1.8-3.6c1-2.4,0.5-4.2-1.4-5.3c-1.9-1.1-3.5-0.7-5.2,1.3
		c-1,1.1-1.9,2.3-2.8,3.4c-6.8,7.6-15.2,12.9-24.6,16.7c-0.4,0.1-0.8,0.2-1.1,0.3C154.3,169,154.1,168.8,154,168.6z"/>
	<path class="st0" d="M129.9,210.5c3.7,2.6,7.3,3.5,11.1,3.8c13.4,1.1,25-2.9,34.3-12.8c1.6-1.7,3.2-3.3,5-4.9
		c1.1-0.9,2.3-1.6,3.6-2.2c1.7-0.7,3.3-0.2,4.7,1.1c1.4,1.2,1.2,2.8,0.6,4.3c-0.5,1.5-1.2,2.9-1.4,4.7c0.8-0.7,1.6-1.4,2.5-2.1
		c1.1-0.8,2-1.7,3.1-2.5c1.6-1.1,3.2-1.5,4.9-0.3c1.7,1.1,1.9,2.9,1.6,4.7c-0.2,1.2-0.6,2.4-0.5,4c0.8-0.6,1.6-1.3,2.5-1.9
		c1.9-1.6,3.4-1.8,4.7-0.6c1.5,1.4,1.9,3.6,0.3,5.3c-2.6,2.6-5.4,5.1-8.4,7.3c-14.4,10.6-30.4,16.7-48.3,18
		c-39.6,2.7-75.7-19.4-91.3-55.9c-0.3-0.8-0.6-1.6-1.1-2.7c4.1,3.1,7.7,6.5,11.8,8.9c22,13.3,44.8,16,68.4,4.1
		c3.3-1.7,7.1-2.7,10.6-4.1c0.4-0.1,0.8-0.2,1.3-0.2c2.7-0.2,5.4,0,6.8,2.8c1.4,2.7,0.5,5.3-1.4,7.4c-5.2,6.1-11.8,9.9-19.4,12.1
		C134,209.4,132.2,209.8,129.9,210.5z"/>
	<path class="st0" d="M173.8,93.6c-0.3,13.1-10.5,22.7-23.7,22.4c-11.9-0.3-21.8-10.9-21.5-22.9c0.3-12.8,10.7-22.6,23.8-22.2
		C164.1,71.2,174.1,81.7,173.8,93.6z"/>
	<path class="st1" d="M260.6,203.4c0,8.9-6.9,15.7-15.8,15.6c-8.5,0-15.7-7.3-15.6-15.6c0.1-8.7,7.3-15.9,15.9-15.9
		C253.6,187.6,260.6,194.7,260.6,203.4z"/>
	<path class="st1" d="M264.8,64.4c0,8.5-7.3,15.8-15.5,15.7c-8.9-0.1-15.7-7.1-15.7-15.9c0.1-8.9,6.9-15.6,15.7-15.5
		C258.1,48.7,264.8,55.5,264.8,64.4z"/>
	<path class="st1" d="M14,104.3c7.2,0,12.6,5.5,12.6,12.7c0,7-5.6,12.5-12.7,12.4c-7.1,0-12.5-5.5-12.5-12.6
		C1.4,109.7,6.8,104.3,14,104.3z"/>
	<path class="st1" d="M110.6,12c-0.1-1.2-0.1-2.2-0.3-3c-0.8-3.2-0.9-2.9,2.4-3.6c9.4-2,18.9-3.1,28.5-3c14.8,0.2,29.2,2.7,43.2,7.8
		c0.5,0.2,1,0.5,1.5,0.7c-0.8,1.8-1.4,3.5-2.3,5.4C159.7,7.5,135.4,6,110.6,12z"/>
	<path class="st1" d="M265.9,137.5c-5.6-0.1-9.9-4.6-9.8-10.2c0.1-5.4,4.7-10,10-9.9c5.7,0.1,10.1,4.6,10,10.3
		C276,133.4,271.6,137.6,265.9,137.5z"/>
	<path class="st1" d="M87.5,11.2c0-5.6,4.3-10,9.9-10.2c5.3-0.1,10.2,4.8,10.2,10c0,5.6-4.5,10-10,10C91.7,21.2,87.5,17,87.5,11.2z"
		/>
	<path class="st1" d="M44.8,44.8c11-12.3,24.4-22.4,40-29.8c1,1.7,1.9,3.2,3,5.1c-14.9,7.3-28.1,17-39.1,29.2
		C47.4,47.8,46.1,46.4,44.8,44.8z"/>
	<path class="st1" d="M263.6,140.5c1.5,0,2.7,0.2,3.7,0c1.9-0.5,2.2,0.4,2.1,2c-0.7,9.4-2.4,18.6-5.3,27.6
		c-1.7,5.5-4.1,10.8-6.1,16.1c-0.3,0.8-0.8,1.5-1.3,2.4c-1.8-1-3.4-1.9-5.2-3C258.4,171.4,262.3,156.4,263.6,140.5z"/>
	<path class="st1" d="M201.4,24.6c1-1.9,1.8-3.4,2.8-5.3c13.3,7.6,25,17,35.1,28.7c-1.5,1.3-2.9,2.5-4.6,3.8
		C225.2,40.9,214.1,31.9,201.4,24.6z"/>
	<path class="st1" d="M31.1,62.7c1.9,1.1,3.3,1.9,5.2,3C29,77.2,23.8,89.6,20.5,102.6c-0.5,0.1-0.6,0.2-0.8,0.1
		c-1.6-0.4-3.1-0.8-5-1.3C18,87.6,23.5,74.8,31.1,62.7z"/>
	<path class="st1" d="M259.6,80c1.9,5.5,3.9,10.8,5.4,16.3c1.4,5.1,2.3,10.3,3.3,15.4c0.5,2.7,0.3,2.9-2.4,2.9c-3.1,0-3.1,0-3.7-3.3
		c-1.6-9.1-4-18-7.4-26.5c-0.3-0.7-0.5-1.4-0.8-2.3C255.8,81.7,257.5,80.9,259.6,80z"/>
	<path class="st1" d="M38.9,47c4.3,0.1,7.9,3.7,7.9,7.8c0,4.3-3.7,8-7.9,7.9c-4.3,0-7.9-3.7-7.8-8C31.1,50.5,34.7,46.9,38.9,47z"/>
	<path class="st1" d="M193.9,24.5c-4.1,0-7.1-3-7.1-7.2c0-4.2,3-7.1,7.2-7.1c4.2,0,7.1,3,7.1,7.2C201,21.5,198.1,24.5,193.9,24.5z"
		/>
</g>
</svg>
